<?xml version="1.0" encoding="UTF-8"?>
<svg width="24px" height="24px" viewBox="0 0 24 24" version="1.1" xmlns="http://www.w3.org/2000/svg" xmlns:xlink="http://www.w3.org/1999/xlink">
    <!-- Generator: sketchtool 53.2 (72643) - https://sketchapp.com -->
    <title>31173933-DEE1-40C1-93FA-B363079083BB</title>
    <desc>Created with sketchtool.</desc>
    <defs>
        <path d="M17,10 L7,10 L7,12 L17,12 L17,10 L17,10 Z M19,3 L18,3 L18,1 L16,1 L16,3 L8,3 L8,1 L6,1 L6,3 L5,3 C3.89,3 3.01,3.9 3.01,5 L3,19 C3,20.1 3.89,21 5,21 L19,21 C20.1,21 21,20.1 21,19 L21,5 C21,3.9 20.1,3 19,3 L19,3 Z M19,19 L5,19 L5,8 L19,8 L19,19 L19,19 Z M14,14 L7,14 L7,16 L14,16 L14,14 L14,14 Z" id="path-1"></path>
        <rect id="path-3" x="0" y="0" width="50" height="50"></rect>
    </defs>
    <g id="Symbols" stroke="none" stroke-width="1" fill="none" fill-rule="evenodd">
        <g id="ic_event_note">
            <mask id="mask-2" fill="white">
                <use xlink:href="#path-1"></use>
            </mask>
            <g id="Mask"></g>
            <g id="Colors/Black" mask="url(#mask-2)">
                <g transform="translate(-13.000000, -13.000000)">
                    <mask id="mask-4" fill="white">
                        <use xlink:href="#path-3"></use>
                    </mask>
                    <use id="Black" stroke="none" fill="#000000" fill-rule="evenodd" xlink:href="#path-3"></use>
                </g>
            </g>
        </g>
    </g>
</svg>