<?xml version="1.0" encoding="UTF-8"?>
<svg width="24px" height="24px" viewBox="0 0 24 24" version="1.1" xmlns="http://www.w3.org/2000/svg" xmlns:xlink="http://www.w3.org/1999/xlink">
    <!-- Generator: sketchtool 53.2 (72643) - https://sketchapp.com -->
    <title>75306012-BDF4-4D59-B591-EC8DA0AC9243</title>
    <desc>Created with sketchtool.</desc>
    <defs>
        <path d="M12,7 C14.76,7 17,9.24 17,12 C17,12.65 16.87,13.26 16.64,13.83 L19.56,16.75 C21.07,15.49 22.26,13.86 22.99,12 C21.26,7.61 16.99,4.5 11.99,4.5 C10.59,4.5 9.25,4.75 8.01,5.2 L10.17,7.36 C10.74,7.13 11.35,7 12,7 L12,7 Z M2,4.27 L4.28,6.55 L4.74,7.01 C3.08,8.3 1.78,10.02 1,12 C2.73,16.39 7,19.5 12,19.5 C13.55,19.5 15.03,19.2 16.38,18.66 L16.8,19.08 L19.73,22 L21,20.73 L3.27,3 L2,4.27 L2,4.27 Z M7.53,9.8 L9.08,11.35 C9.03,11.56 9,11.78 9,12 C9,13.66 10.34,15 12,15 C12.22,15 12.44,14.97 12.65,14.92 L14.2,16.47 C13.53,16.8 12.79,17 12,17 C9.24,17 7,14.76 7,12 C7,11.21 7.2,10.47 7.53,9.8 L7.53,9.8 Z M11.84,9.02 L14.99,12.17 L15.01,12.01 C15.01,10.35 13.67,9.01 12.01,9.01 L11.84,9.02 L11.84,9.02 Z" id="path-1"></path>
        <rect id="path-3" x="0" y="0" width="50" height="50"></rect>
    </defs>
    <g id="Symbols" stroke="none" stroke-width="1" fill="none" fill-rule="evenodd">
        <g id="ic_visibility_off">
            <mask id="mask-2" fill="white">
                <use xlink:href="#path-1"></use>
            </mask>
            <g id="Mask"></g>
            <g id="Colors-DarkGray" mask="url(#mask-2)">
                <g transform="translate(-13.000000, -13.000000)">
                    <mask id="mask-4" fill="white">
                        <use xlink:href="#path-3"></use>
                    </mask>
                    <use id="Black" stroke="none" fill="#262626" fill-rule="evenodd" xlink:href="#path-3"></use>
                </g>
            </g>
        </g>
    </g>
</svg>