<?xml version="1.0" encoding="UTF-8"?>
<svg width="20px" height="15px" viewBox="0 0 20 15" version="1.1" xmlns="http://www.w3.org/2000/svg" xmlns:xlink="http://www.w3.org/1999/xlink">
    <!-- Generator: sketchtool 53.2 (72643) - https://sketchapp.com -->
    <title>3D293E08-598A-4698-8C41-93C014AC6A05</title>
    <desc>Created with sketchtool.</desc>
    <defs>
        <polygon id="path-1" points="0 0.000104615385 22.9148242 0.000104615385 22.9148242 17 0 17"></polygon>
    </defs>
    <g id="Symbols" stroke="none" stroke-width="1" fill="none" fill-rule="evenodd">
        <g id="gnb_basic_logined" transform="translate(-1233.000000, -35.000000)">
            <g id="logout" transform="translate(1243.500000, 42.500000) scale(-1, 1) translate(-1243.500000, -42.500000) translate(1232.000000, 34.000000)">
                <mask id="mask-2" fill="white">
                    <use xlink:href="#path-1"></use>
                </mask>
                <g id="Clip-2"></g>
                <path d="M8.53182283,5.58562462 C9.60793128,3.28827077 11.9168309,1.7 14.5913924,1.7 C18.2943134,1.7 21.2962963,4.74430769 21.2962963,8.5 C21.2962963,12.2554831 18.2943134,15.3 14.5913924,15.3 C11.9168309,15.3 9.60793128,13.71152 8.53182283,11.4141662 L10.7596939,11.4141662 C11.6334377,12.5940185 13.0245653,13.3570831 14.5913924,13.3570831 C17.236395,13.3570831 19.3805504,11.1823385 19.3805504,8.5 C19.3805504,5.81745231 17.236395,3.64270769 14.5913924,3.64270769 C13.0245653,3.64270769 11.6334377,4.40577231 10.7596939,5.58562462 L8.53182283,5.58562462 Z M7.16219268,7.47058462 L7.16219268,4.88323692 L2.55555556,8.51883077 L7.16219268,12.1546338 L7.16219268,9.62628923 C7.16818714,9.62670769 7.17418159,9.62670769 7.18017605,9.62670769 L14.5213193,9.62670769 C14.749522,9.62670769 14.9347301,9.43923692 14.9347301,9.20845538 L14.9347301,7.88862769 C14.9347301,7.65742769 14.7486952,7.47016615 14.5213193,7.47016615 L7.18017605,7.47016615 C7.17418159,7.47016615 7.16818714,7.47037538 7.16219268,7.47058462 L7.16219268,7.47058462 Z" id="Fill-1" fill="#FFFFFF" mask="url(#mask-2)"></path>
            </g>
        </g>
    </g>
</svg>